<?xml version="1.0" encoding="utf-8"?>
<!-- Generator: Adobe Illustrator 16.0.0, SVG Export Plug-In . SVG Version: 6.00 Build 0)  -->
<!DOCTYPE svg PUBLIC "-//W3C//DTD SVG 1.1//EN" "http://www.w3.org/Graphics/SVG/1.1/DTD/svg11.dtd">
<svg version="1.1" id="图层_1" xmlns="http://www.w3.org/2000/svg" xmlns:xlink="http://www.w3.org/1999/xlink" x="0px" y="0px"
	 width="138.646px" height="98.604px" viewBox="0 0 138.646 98.604" enable-background="new 0 0 138.646 98.604"
	 xml:space="preserve">
<circle fill="#009A3E" stroke="#009A3E" stroke-miterlimit="10" cx="80.307" cy="5.408" r="4.408"/>
<circle fill="#009A3E" stroke="#009A3E" stroke-miterlimit="10" cx="16.678" cy="92.628" r="4.409"/>
<circle fill="#009A3E" stroke="#009A3E" stroke-miterlimit="10" cx="118.871" cy="31.874" r="4.407"/>
<circle fill="#009A3E" stroke="#009A3E" stroke-miterlimit="10" cx="110.055" cy="91.628" r="4.408"/>
<circle fill="#009A3E" stroke="#009A3E" stroke-miterlimit="10" cx="80.307" cy="50.318" r="4.408"/>
<circle fill="#009A3E" stroke="#009A3E" stroke-miterlimit="10" cx="27.262" cy="22.254" r="4.408"/>
<circle fill="#009A3E" stroke="#009A3E" stroke-miterlimit="10" cx="41.512" cy="63.806" r="4.409"/>
<circle fill="#009A3E" stroke="#009A3E" stroke-miterlimit="10" cx="68.258" cy="74.323" r="4.408"/>
<line fill="none" stroke="#898989" stroke-miterlimit="10" x1="29.792" y1="27.822" x2="38.824" y2="58.42"/>
<line fill="#FFFFFF" stroke="#898989" stroke-miterlimit="10" x1="22.854" y1="87.087" x2="37.103" y2="69.914"/>
<line fill="#FFFFFF" stroke="#898989" stroke-miterlimit="10" x1="27.262" y1="91.627" x2="60.659" y2="80.394"/>
<line fill="#FFFFFF" stroke="#898989" stroke-miterlimit="10" x1="27.262" y1="96.036" x2="100.857" y2="92.628"/>
<line fill="#FFFFFF" stroke="#898989" stroke-miterlimit="10" x1="77.059" y1="74.322" x2="103.429" y2="86.011"/>
<line fill="#FFFFFF" stroke="#898989" stroke-miterlimit="10" x1="110.055" y1="83.398" x2="118.87" y2="39.953"/>
<line fill="#FFFFFF" stroke="#898989" stroke-miterlimit="10" x1="87.671" y1="54.725" x2="105.647" y2="80.166"/>
<line fill="#FFFFFF" stroke="#898989" stroke-miterlimit="10" x1="75.899" y1="56.729" x2="72.666" y2="66.689"/>
<line fill="#FFFFFF" stroke="#898989" stroke-miterlimit="10" x1="86.064" y1="45.909" x2="112.112" y2="35.61"/>
<line fill="#FFFFFF" stroke="#898989" stroke-miterlimit="10" x1="87.671" y1="9.815" x2="112.112" y2="24.723"/>
<line fill="#FFFFFF" stroke="#898989" stroke-miterlimit="10" x1="34.308" y1="17.845" x2="72.666" y2="6.79"/>
<line fill="#FFFFFF" stroke="#898989" stroke-miterlimit="10" x1="24.319" y1="29.301" x2="16.677" y2="84.94"/>
<line fill="#FFFFFF" stroke="#898989" stroke-miterlimit="10" x1="20.499" y1="84.572" x2="75.899" y2="12.317"/>
<line fill="#FFFFFF" stroke="#898989" stroke-miterlimit="10" x1="48.199" y1="61.709" x2="72.666" y2="52.133"/>
<line fill="#FFFFFF" stroke="#898989" stroke-miterlimit="10" x1="80.307" y1="14.762" x2="80.307" y2="40.76"/>
<line fill="#FFFFFF" stroke="#898989" stroke-miterlimit="10" x1="34.308" y1="24.723" x2="75.898" y2="44.294"/>
<line fill="#FFFFFF" stroke="#898989" stroke-miterlimit="10" x1="50.368" y1="67.446" x2="60.659" y2="69.914"/>
<line fill="#FFFFFF" stroke="#898989" stroke-miterlimit="10" x1="114.463" y1="39.953" x2="77.059" y2="68.68"/>
<line fill="#FFFFFF" stroke="#898989" stroke-miterlimit="10" x1="31.67" y1="26.662" x2="66.447" y2="66.689"/>
<line fill="#FFFFFF" stroke="#898989" stroke-miterlimit="10" x1="77.059" y1="14.762" x2="69.341" y2="61.709"/>
<line fill="#FFFFFF" stroke="#898989" stroke-miterlimit="10" x1="84.715" y1="12.317" x2="107.609" y2="74.322"/>
<line fill="#FFFFFF" stroke="#898989" stroke-miterlimit="10" x1="24.319" y1="88.219" x2="74.282" y2="56.729"/>
<line fill="#FFFFFF" stroke="#898989" stroke-miterlimit="10" x1="34.308" y1="20.939" x2="110.055" y2="29.301"/>
</svg>
