<?xml version="1.0" encoding="utf-8"?>
<!-- Generator: Adobe Illustrator 16.0.0, SVG Export Plug-In . SVG Version: 6.00 Build 0)  -->
<!DOCTYPE svg PUBLIC "-//W3C//DTD SVG 1.1//EN" "http://www.w3.org/Graphics/SVG/1.1/DTD/svg11.dtd">
<svg version="1.1" id="图层_1" xmlns="http://www.w3.org/2000/svg" xmlns:xlink="http://www.w3.org/1999/xlink" x="0px" y="0px"
	 width="138.646px" height="98.604px" viewBox="0 0 138.646 98.604" enable-background="new 0 0 138.646 98.604"
	 xml:space="preserve">
<circle fill="#FFFFFF" stroke="#009A3E" stroke-miterlimit="10" cx="30.521" cy="48.092" r="6.655"/>
<circle fill="#FFFFFF" stroke="#009A3E" stroke-miterlimit="10" cx="108.84" cy="48.092" r="6.655"/>
<circle fill="#FFFFFF" stroke="#009A3E" stroke-miterlimit="10" cx="6.655" cy="89.968" r="6.655"/>
<circle fill="#FFFFFF" stroke="#009A3E" stroke-miterlimit="10" cx="54.745" cy="89.968" r="6.655"/>
<circle fill="#FFFFFF" stroke="#009A3E" stroke-miterlimit="10" cx="82.843" cy="90.841" r="6.655"/>
<circle fill="#FFFFFF" stroke="#009A3E" stroke-miterlimit="10" cx="131.99" cy="90.451" r="6.655"/>
<line fill="none" stroke="#595757" stroke-miterlimit="10" x1="67.761" y1="19.496" x2="67.761" y2="27.996"/>
<line fill="none" stroke="#595757" stroke-miterlimit="10" x1="109.345" y1="27.622" x2="31.844" y2="27.62"/>
<g>
	<line fill="none" stroke="#595757" stroke-miterlimit="10" x1="32.344" y1="27.621" x2="32.344" y2="36.621"/>
	<line fill="none" stroke="#595757" stroke-miterlimit="10" x1="32.578" y1="36.767" x2="29.865" y2="33.726"/>
	<line fill="none" stroke="#595757" stroke-miterlimit="10" x1="32.019" y1="36.833" x2="34.924" y2="33.976"/>
</g>
<g>
	<line fill="none" stroke="#595757" stroke-miterlimit="10" x1="108.84" y1="27.622" x2="108.84" y2="36.622"/>
	<line fill="none" stroke="#595757" stroke-miterlimit="10" x1="109.074" y1="36.767" x2="106.361" y2="33.726"/>
	<line fill="none" stroke="#595757" stroke-miterlimit="10" x1="108.515" y1="36.833" x2="111.42" y2="33.977"/>
</g>
<line fill="none" stroke="#595757" stroke-miterlimit="10" x1="31.248" y1="61.414" x2="31.248" y2="69.914"/>
<line fill="none" stroke="#595757" stroke-miterlimit="10" x1="55.12" y1="69.539" x2="5.922" y2="69.539"/>
<g>
	<line fill="none" stroke="#595757" stroke-miterlimit="10" x1="6.421" y1="69.539" x2="6.421" y2="78.539"/>
	<line fill="none" stroke="#595757" stroke-miterlimit="10" x1="6.655" y1="78.685" x2="3.942" y2="75.644"/>
	<line fill="none" stroke="#595757" stroke-miterlimit="10" x1="6.097" y1="78.751" x2="9.002" y2="75.894"/>
</g>
<g>
	<line fill="none" stroke="#595757" stroke-miterlimit="10" x1="55.069" y1="69.54" x2="55.069" y2="78.54"/>
	<line fill="none" stroke="#595757" stroke-miterlimit="10" x1="55.303" y1="78.685" x2="52.59" y2="75.644"/>
	<line fill="none" stroke="#595757" stroke-miterlimit="10" x1="54.745" y1="78.751" x2="57.65" y2="75.895"/>
</g>
<circle fill="#FFFFFF" stroke="#009A3E" stroke-miterlimit="10" cx="67.761" cy="8.275" r="6.655"/>
<line fill="none" stroke="#595757" stroke-miterlimit="10" x1="109.168" y1="61.245" x2="109.168" y2="69.745"/>
<line fill="none" stroke="#595757" stroke-miterlimit="10" x1="132.041" y1="69.37" x2="82.843" y2="69.37"/>
<g>
	<line fill="none" stroke="#595757" stroke-miterlimit="10" x1="83.342" y1="69.37" x2="83.342" y2="78.37"/>
	<line fill="none" stroke="#595757" stroke-miterlimit="10" x1="83.576" y1="78.516" x2="80.863" y2="75.475"/>
	<line fill="none" stroke="#595757" stroke-miterlimit="10" x1="83.018" y1="78.582" x2="85.923" y2="75.725"/>
</g>
<g>
	<line fill="none" stroke="#595757" stroke-miterlimit="10" x1="131.99" y1="69.371" x2="131.99" y2="78.371"/>
	<line fill="none" stroke="#595757" stroke-miterlimit="10" x1="132.224" y1="78.516" x2="129.511" y2="75.475"/>
	<line fill="none" stroke="#595757" stroke-miterlimit="10" x1="131.666" y1="78.583" x2="134.571" y2="75.726"/>
</g>
</svg>
