<?xml version="1.0" encoding="utf-8"?>
<!-- Generator: Adobe Illustrator 16.0.0, SVG Export Plug-In . SVG Version: 6.00 Build 0)  -->
<!DOCTYPE svg PUBLIC "-//W3C//DTD SVG 1.1//EN" "http://www.w3.org/Graphics/SVG/1.1/DTD/svg11.dtd">
<svg version="1.1" id="图层_1" xmlns="http://www.w3.org/2000/svg" xmlns:xlink="http://www.w3.org/1999/xlink" x="0px" y="0px"
	 width="568.182px" height="114.381px" viewBox="0 0 568.182 114.381" enable-background="new 0 0 568.182 114.381"
	 xml:space="preserve">
<g>
	<defs>
		<path id="SVGID_1_" d="M33.996,57.125c0.011-6.755,5.474-12.218,12.231-12.231c6.753,0.013,12.216,5.476,12.23,12.231
			c-0.014,6.754-5.477,12.218-12.23,12.231C39.47,69.344,34.007,63.88,33.996,57.125 M29.953,57.125
			c0.019,12.294,9.966,22.24,22.26,22.261c12.294-0.021,22.237-9.967,22.261-22.261c-0.023-12.293-9.968-22.238-22.261-22.261
			C39.919,34.888,29.972,44.832,29.953,57.125"/>
	</defs>
	<clipPath id="SVGID_2_">
		<use xlink:href="#SVGID_1_"  overflow="visible"/>
	</clipPath>
	
		<linearGradient id="SVGID_3_" gradientUnits="userSpaceOnUse" x1="-87.207" y1="600.8506" x2="-86.1275" y2="600.8506" gradientTransform="matrix(42.2531 0 0 42.2531 3714.1873 -25330.6758)">
		<stop  offset="0" style="stop-color:#4D87F6"/>
		<stop  offset="0.4774" style="stop-color:#FF30B3"/>
		<stop  offset="0.9687" style="stop-color:#FFBD41"/>
		<stop  offset="1" style="stop-color:#FFC63A"/>
	</linearGradient>
	<rect x="29.953" y="34.865" clip-path="url(#SVGID_2_)" fill="url(#SVGID_3_)" width="44.521" height="44.522"/>
</g>
<g>
	<defs>
		<path id="SVGID_4_" d="M6.806,57.19c0.001-20.447,16.575-37.022,37.021-37.022c20.45,0,37.025,16.575,37.025,37.022
			S64.277,94.213,43.828,94.213C23.381,94.213,6.807,77.638,6.806,57.19 M0,57.19c0,31.587,25.606,57.19,57.188,57.19
			c31.587,0,57.192-25.604,57.192-57.19C114.38,25.604,88.774,0,57.188,0C25.606,0,0,25.604,0,57.19"/>
	</defs>
	<clipPath id="SVGID_5_">
		<use xlink:href="#SVGID_4_"  overflow="visible"/>
	</clipPath>
	
		<linearGradient id="SVGID_6_" gradientUnits="userSpaceOnUse" x1="-79.6138" y1="604.2256" x2="-78.5344" y2="604.2256" gradientTransform="matrix(106.9473 0 0 106.9473 8513.9697 -64563.2305)">
		<stop  offset="0" style="stop-color:#4D87F6"/>
		<stop  offset="0.4774" style="stop-color:#FF30B3"/>
		<stop  offset="0.9687" style="stop-color:#FFBD41"/>
		<stop  offset="1" style="stop-color:#FFC63A"/>
	</linearGradient>
	<rect clip-path="url(#SVGID_5_)" fill="url(#SVGID_6_)" width="114.38" height="114.381"/>
</g>
<g>
	<path fill="#FFFFFF" d="M159.555,25.446c-18.458,0-33.422,14.964-33.422,33.423s14.964,33.423,33.422,33.423
		c18.459,0,33.423-14.964,33.423-33.423S178.014,25.446,159.555,25.446 M159.555,80.5c-11.785,0-21.338-9.686-21.338-21.631
		c0-11.946,9.553-21.631,21.338-21.631s21.338,9.685,21.338,21.631C180.893,70.815,171.34,80.5,159.555,80.5"/>
	<path fill="#FFFFFF" d="M233.689,50.836v19.408c0,5.377-4.358,9.735-9.735,9.735s-9.735-4.358-9.735-9.735V50.836V43.24h-12.146
		v27.17c0,12.085,9.796,21.882,21.881,21.882c3.514,0,8.751-1.557,9.766-5.387v5.336h12.084V71.014
		c0.006-0.202,0.031-0.399,0.031-0.604V43.24h-12.146V50.836z"/>
	<path fill="#FFFFFF" d="M388.979,43.993c-4.484,0-8.668,1.246-12.265,3.379v-3.793h-12.146v18.506v47.283v0.405h12.146V88.838
		c3.597,2.132,7.78,3.38,12.265,3.38c13.317,0,24.112-10.797,24.112-24.113C413.092,54.788,402.297,43.993,388.979,43.993
		 M388.979,80.072c-6.609,0-11.967-5.358-11.967-11.967c0-6.609,5.357-11.967,11.967-11.967s11.967,5.357,11.967,11.967
		C400.946,74.713,395.589,80.072,388.979,80.072"/>
	<path fill="#FFFFFF" d="M443.506,43.579c-13.316,0-24.112,10.796-24.112,24.112c0,13.317,10.796,24.113,24.112,24.113
		c4.359,0,8.438-1.175,11.967-3.198v3.975h12.146v-6.958V67.843v-0.152C467.618,54.375,456.822,43.579,443.506,43.579
		 M443.506,79.658c-6.609,0-11.967-5.357-11.967-11.967c0-6.608,5.357-11.967,11.967-11.967s11.967,5.358,11.967,11.967
		C455.473,74.3,450.115,79.658,443.506,79.658"/>
	<path fill="#FFFFFF" d="M498.948,79.658c-6.609,0-11.967-5.357-11.967-11.967c0-6.608,5.357-11.968,11.967-11.968
		c2.938,0,5.622,1.063,7.704,2.817l6.656-6.656l1.932-1.932c-4.293-3.945-10.002-6.374-16.292-6.374
		c-13.317,0-24.112,10.796-24.112,24.112c0,13.317,10.795,24.113,24.112,24.113c6.32,0,12.054-2.451,16.354-6.431l-8.588-8.588
		C504.623,78.573,501.914,79.658,498.948,79.658"/>
	<path fill="#FFFFFF" d="M538.671,57.327c0.056,0.032,0.108,0.066,0.163,0.1C538.779,57.393,538.727,57.359,538.671,57.327
		L538.671,57.327z"/>
	<path fill="#FFFFFF" d="M567.848,63.853c-0.877-5.47-3.584-10.314-7.486-13.9c0,0,0-0.001-0.001-0.001
		c-0.534-0.493-1.09-0.959-1.668-1.402c-0.005-0.004-0.011-0.009-0.017-0.011c-0.566-0.434-1.15-0.843-1.757-1.225
		c-0.034-0.023-0.07-0.043-0.105-0.065c-0.576-0.36-1.165-0.7-1.773-1.011c-0.015-0.008-0.031-0.016-0.048-0.024
		c-0.076-0.037-0.148-0.07-0.222-0.106c-0.563-0.279-1.131-0.545-1.717-0.781c-0.165-0.067-0.336-0.121-0.503-0.184
		c-0.524-0.198-1.053-0.393-1.594-0.553c-0.266-0.079-0.542-0.138-0.811-0.208c-0.46-0.121-0.918-0.247-1.389-0.34
		c-0.114-0.022-0.232-0.032-0.348-0.052c-0.297-0.048-0.594-0.093-0.893-0.137c-0.354-0.051-0.701-0.118-1.062-0.153
		c-0.29-0.03-0.584-0.026-0.875-0.045c-0.503-0.032-1.002-0.076-1.512-0.076h-0.001c-0.808,0-1.605,0.043-2.394,0.121
		c-0.364,0.036-0.719,0.104-1.077,0.157c-0.41,0.059-0.824,0.107-1.229,0.187c-0.481,0.096-0.953,0.224-1.42,0.349
		c-0.263,0.068-0.53,0.125-0.788,0.202c-0.553,0.167-1.092,0.362-1.628,0.568c-0.16,0.059-0.319,0.111-0.476,0.172
		c-0.601,0.245-1.185,0.515-1.755,0.804c-0.079,0.039-0.162,0.075-0.241,0.116c-0.616,0.319-1.217,0.663-1.802,1.034
		c-0.028,0.017-0.059,0.034-0.087,0.052c-0.611,0.39-1.203,0.805-1.775,1.245c-0.002,0.001-0.004,0.003-0.006,0.005
		c-0.58,0.448-1.142,0.92-1.675,1.416l-0.003,0.001c-4.76,4.405-7.758,10.687-7.758,17.683c0,7.028,3.035,13.319,7.834,17.725
		l-0.015,0.015c0.535,0.491,1.092,0.959,1.669,1.401c0.006,0.003,0.011,0.008,0.015,0.012c0.568,0.434,1.154,0.842,1.758,1.226
		c0.033,0.021,0.071,0.043,0.107,0.064c0.575,0.361,1.166,0.698,1.772,1.012c0.088,0.045,0.179,0.085,0.268,0.129
		c0.563,0.281,1.134,0.545,1.718,0.781c0.166,0.066,0.334,0.121,0.502,0.184c0.526,0.199,1.054,0.39,1.596,0.552
		c0.265,0.08,0.538,0.139,0.808,0.209c0.461,0.121,0.921,0.247,1.393,0.341c0.408,0.079,0.825,0.129,1.24,0.188
		c0.353,0.052,0.701,0.119,1.06,0.154c0.786,0.077,1.582,0.12,2.389,0.12s1.606-0.043,2.395-0.12
		c0.363-0.037,0.718-0.105,1.076-0.157c0.411-0.06,0.825-0.109,1.229-0.188c0.48-0.095,0.95-0.224,1.421-0.348
		c0.262-0.07,0.529-0.126,0.787-0.203c0.554-0.166,1.093-0.362,1.628-0.566c0.158-0.061,0.319-0.111,0.476-0.176
		c0.599-0.241,1.182-0.513,1.753-0.801c0.082-0.04,0.164-0.076,0.243-0.117c0.617-0.318,1.215-0.664,1.8-1.032
		c0.031-0.019,0.062-0.035,0.09-0.054c0.61-0.389,1.2-0.805,1.775-1.246c0.002-0.002,0.004-0.003,0.006-0.004
		c0.579-0.446,1.139-0.919,1.673-1.416h0.003l-8.591-8.589c-0.499,0.429-1.041,0.811-1.606,1.153
		c-0.043,0.025-0.086,0.053-0.13,0.078c-0.547,0.32-1.123,0.598-1.722,0.83c-0.072,0.027-0.146,0.053-0.218,0.079
		c-0.596,0.218-1.211,0.394-1.847,0.515c-0.07,0.014-0.144,0.02-0.213,0.032c-0.66,0.112-1.335,0.185-2.027,0.185
		c-0.674,0-1.331-0.071-1.975-0.178c-0.202-0.033-0.396-0.087-0.596-0.131c-0.438-0.098-0.87-0.212-1.292-0.355
		c-0.211-0.074-0.421-0.152-0.629-0.237c-0.397-0.162-0.783-0.348-1.155-0.55c-0.188-0.102-0.382-0.195-0.561-0.306
		c-0.428-0.262-0.832-0.555-1.223-0.865c-1.391-1.11-2.541-2.509-3.327-4.126h12.883h8.63h0.001h9.163h3.611
		c0.371-1.683,0.582-3.425,0.582-5.219C568.182,66.381,568.049,65.106,567.848,63.853 M555.395,63.853h-9.2h-13.452
		c0.739-2.185,2.109-4.062,3.868-5.478c0.002-0.001,0.004-0.001,0.005-0.001c0.321-0.26,0.656-0.497,1.004-0.721
		c0.205-0.132,0.408-0.265,0.622-0.385c0.373-0.21,0.759-0.389,1.159-0.559c0.217-0.092,0.427-0.193,0.65-0.273
		c0.437-0.156,0.889-0.271,1.347-0.375c0.204-0.048,0.4-0.113,0.608-0.149c0.671-0.118,1.357-0.188,2.063-0.188
		c0.359,0,0.701,0.06,1.051,0.095c0.304,0.03,0.615,0.032,0.913,0.082c0.041,0.007,0.084,0.01,0.125,0.017
		c-0.004-0.001-0.008-0.001-0.011-0.001c0.004,0,0.008,0,0.012,0.001c0.048,0.008,0.092,0.014,0.142,0.022
		c0.619,0.117,1.221,0.288,1.803,0.496c0.001,0,0.001,0.001,0.001,0.001c0.06,0.02,0.119,0.043,0.178,0.063
		c0.002,0.001,0.003,0.002,0.005,0.002c-0.002,0-0.004-0.001-0.006-0.002c0.609,0.23,1.195,0.505,1.752,0.826
		c-0.037-0.021-0.079-0.035-0.117-0.055c0.039,0.02,0.081,0.033,0.118,0.055h0.001c0.055,0.032,0.107,0.066,0.162,0.1
		c0.987,0.59,1.88,1.317,2.656,2.155c0.051,0.057,0.101,0.111,0.147,0.168c0.689,0.771,1.277,1.629,1.748,2.562
		c0.011,0.022,0.021,0.046,0.033,0.069C555.017,62.855,555.224,63.345,555.395,63.853L555.395,63.853L555.395,63.853z"/>
	<path fill="#FFFFFF" d="M270.866,50.628v-1.934v-5.228h-12.252v24.042v1.676v23.058h12.252V77.935v-1.511v-7.663v-0.595v-0.781
		c0.528-4.856,4.565-8.653,9.554-8.681h15.553V46.552h-15.662C276.922,46.552,272.95,47.602,270.866,50.628"/>
	<path fill="#FFFFFF" d="M305.581,55.437c-0.161,0.873-0.257,1.77-0.257,2.688c0,7.398,5.442,13.508,12.538,14.587l-0.004,0.02
		l6.976,1.026c0,0.001-0.001,0.002-0.001,0.003l14.331,2.155c1.108,0.24,1.956,1.18,1.956,2.36c0,1.295-1.008,2.326-2.277,2.426
		c-0.064,0.006-0.12,0.038-0.186,0.038h-14.324h-19.238v12.084h33.563c7.195,0,13.152-5.226,14.323-12.084
		c0.138-0.803,0.225-1.622,0.225-2.464c0-7.524-5.712-13.712-13.035-14.469v-0.001l-6.314-0.953l-13.97-2.235l0.002-0.034
		c-1.277-0.111-2.289-1.151-2.289-2.459c0-1.381,1.119-2.501,2.5-2.501c0.023,0,0.043,0.014,0.065,0.014l0.001-0.014l14.463-0.105
		l18.88-0.082V43.352h-33.409C312.858,43.352,306.847,48.564,305.581,55.437"/>
</g>
</svg>
