<?xml version="1.0" encoding="utf-8"?>
<!-- Generator: Adobe Illustrator 16.0.0, SVG Export Plug-In . SVG Version: 6.00 Build 0)  -->
<!DOCTYPE svg PUBLIC "-//W3C//DTD SVG 1.1//EN" "http://www.w3.org/Graphics/SVG/1.1/DTD/svg11.dtd">
<svg version="1.1" id="图层_1" xmlns="http://www.w3.org/2000/svg" xmlns:xlink="http://www.w3.org/1999/xlink" x="0px" y="0px"
	 width="138.646px" height="98.604px" viewBox="0 0 138.646 98.604" enable-background="new 0 0 138.646 98.604"
	 xml:space="preserve">
<circle fill="#009A3E" stroke="#009A3E" stroke-miterlimit="10" cx="32.598" cy="23.214" r="3.755"/>
<circle fill="#009A3E" stroke="#009A3E" stroke-miterlimit="10" cx="107.938" cy="69.214" r="3.755"/>
<circle fill="#009A3E" stroke="#009A3E" stroke-miterlimit="10" cx="98.488" cy="82.011" r="3.755"/>
<circle fill="#009A3E" stroke="#009A3E" stroke-miterlimit="10" cx="106.297" cy="23.214" r="3.755"/>
<circle fill="#009A3E" stroke="#009A3E" stroke-miterlimit="10" cx="90.979" cy="10.518" r="3.755"/>
<circle fill="#009A3E" stroke="#009A3E" stroke-miterlimit="10" cx="68.686" cy="5.029" r="3.755"/>
<circle fill="#009A3E" stroke="#009A3E" stroke-miterlimit="10" cx="47.915" cy="10.518" r="3.755"/>
<circle fill="#009A3E" stroke="#009A3E" stroke-miterlimit="10" cx="52.733" cy="90.011" r="3.755"/>
<circle fill="#009A3E" stroke="#009A3E" stroke-miterlimit="10" cx="85.391" cy="90.011" r="3.755"/>
<circle fill="#009A3E" stroke="#009A3E" stroke-miterlimit="10" cx="68.686" cy="93.577" r="3.755"/>
<circle fill="#009A3E" stroke="#009A3E" stroke-miterlimit="10" cx="112.757" cy="54.229" r="3.755"/>
<circle fill="#009A3E" stroke="#009A3E" stroke-miterlimit="10" cx="38.279" cy="82.011" r="3.755"/>
<circle fill="#009A3E" stroke="#009A3E" stroke-miterlimit="10" cx="28.844" cy="69.214" r="3.755"/>
<circle fill="#009A3E" stroke="#009A3E" stroke-miterlimit="10" cx="23.878" cy="54.393" r="3.755"/>
<path fill="#FFFFFF" stroke="#009A3E" stroke-miterlimit="10" d="M79.345,53.629c0,3.148-0.961,5.7-2.148,5.7H60.176
	c-1.187,0-2.149-2.552-2.149-5.7V40.716c0-3.148,0.962-5.7,2.149-5.7h17.021c1.187,0,2.148,2.552,2.148,5.7V53.629z"/>
<g>
	<line fill="none" stroke="#595757" stroke-miterlimit="10" x1="68.639" y1="62.025" x2="68.673" y2="86.586"/>
	<line fill="none" stroke="#595757" stroke-miterlimit="10" x1="68.846" y1="86.691" x2="66.827" y2="84.49"/>
	<line fill="none" stroke="#595757" stroke-miterlimit="10" x1="68.437" y1="86.745" x2="70.538" y2="84.622"/>
</g>
<g>
	<line fill="none" stroke="#595757" stroke-miterlimit="10" x1="88.833" y1="15.735" x2="76.216" y2="33.313"/>
	<line fill="none" stroke="#595757" stroke-miterlimit="10" x1="76.311" y1="33.463" x2="75.713" y2="31.021"/>
	<line fill="none" stroke="#595757" stroke-miterlimit="10" x1="75.933" y1="33.325" x2="78.827" y2="32.709"/>
	<line fill="none" stroke="#595757" stroke-miterlimit="10" x1="88.859" y1="15.531" x2="89.479" y2="18.064"/>
	<line fill="none" stroke="#595757" stroke-miterlimit="10" x1="89.252" y1="15.674" x2="86.25" y2="16.313"/>
</g>
<g>
	<line fill="none" stroke="#595757" stroke-miterlimit="10" x1="50.563" y1="14.793" x2="61.394" y2="32.878"/>
	<line fill="none" stroke="#595757" stroke-miterlimit="10" x1="61.567" y1="32.878" x2="59.111" y2="32.145"/>
	<line fill="none" stroke="#595757" stroke-miterlimit="10" x1="61.289" y1="33.098" x2="61.903" y2="30.609"/>
	<line fill="none" stroke="#595757" stroke-miterlimit="10" x1="50.389" y1="14.673" x2="52.937" y2="15.436"/>
	<line fill="none" stroke="#595757" stroke-miterlimit="10" x1="50.678" y1="14.446" x2="50.041" y2="17.027"/>
</g>
<g>
	<line fill="none" stroke="#595757" stroke-miterlimit="10" x1="37.112" y1="27.445" x2="56.725" y2="42.229"/>
	<line fill="none" stroke="#595757" stroke-miterlimit="10" x1="56.914" y1="42.154" x2="53.94" y2="42.438"/>
	<line fill="none" stroke="#595757" stroke-miterlimit="10" x1="56.709" y1="42.514" x2="56.283" y2="39.557"/>
	<line fill="none" stroke="#595757" stroke-miterlimit="10" x1="36.871" y1="27.393" x2="39.956" y2="27.1"/>
	<line fill="none" stroke="#595757" stroke-miterlimit="10" x1="37.083" y1="27.021" x2="37.526" y2="30.087"/>
</g>
<g>
	<line fill="none" stroke="#595757" stroke-miterlimit="10" x1="81.971" y1="41.674" x2="102.278" y2="27.859"/>
	<line fill="none" stroke="#595757" stroke-miterlimit="10" x1="102.268" y1="27.657" x2="101.58" y2="30.563"/>
	<line fill="none" stroke="#595757" stroke-miterlimit="10" x1="102.542" y1="27.966" x2="99.606" y2="27.419"/>
	<line fill="none" stroke="#595757" stroke-miterlimit="10" x1="81.844" y1="41.886" x2="82.559" y2="38.871"/>
	<line fill="none" stroke="#595757" stroke-miterlimit="10" x1="81.56" y1="41.564" x2="84.606" y2="42.132"/>
</g>
<g>
	<line fill="none" stroke="#595757" stroke-miterlimit="10" x1="68.61" y1="10.272" x2="68.755" y2="32.724"/>
	<line fill="none" stroke="#595757" stroke-miterlimit="10" x1="68.928" y1="32.819" x2="66.899" y2="30.814"/>
	<line fill="none" stroke="#595757" stroke-miterlimit="10" x1="68.52" y1="32.869" x2="70.611" y2="30.92"/>
	<line fill="none" stroke="#595757" stroke-miterlimit="10" x1="68.505" y1="10.068" x2="70.61" y2="12.147"/>
	<line fill="none" stroke="#595757" stroke-miterlimit="10" x1="68.931" y1="10.016" x2="66.761" y2="12.038"/>
</g>
<g>
	<line fill="none" stroke="#595757" stroke-miterlimit="10" x1="82.871" y1="55.5" x2="103.943" y2="66.996"/>
	<line fill="none" stroke="#595757" stroke-miterlimit="10" x1="104.112" y1="66.896" x2="101.293" y2="67.616"/>
	<line fill="none" stroke="#595757" stroke-miterlimit="10" x1="103.969" y1="67.276" x2="103.119" y2="64.454"/>
</g>
<g>
	<line fill="none" stroke="#595757" stroke-miterlimit="10" x1="79.892" y1="59.363" x2="94.813" y2="77.682"/>
	<line fill="none" stroke="#595757" stroke-miterlimit="10" x1="95.005" y1="77.655" x2="92.163" y2="77.236"/>
	<line fill="none" stroke="#595757" stroke-miterlimit="10" x1="94.732" y1="77.943" x2="95.013" y2="75.084"/>
</g>
<g>
	<line fill="none" stroke="#595757" stroke-miterlimit="10" x1="54.075" y1="50.109" x2="29.638" y2="52.578"/>
	<line fill="none" stroke="#595757" stroke-miterlimit="10" x1="29.551" y1="52.76" x2="31.541" y2="50.533"/>
	<line fill="none" stroke="#595757" stroke-miterlimit="10" x1="29.457" y1="52.358" x2="31.778" y2="54.239"/>
</g>
<g>
	<line fill="none" stroke="#595757" stroke-miterlimit="10" x1="55.943" y1="56.286" x2="33.76" y2="66.83"/>
	<line fill="none" stroke="#595757" stroke-miterlimit="10" x1="33.739" y1="67.029" x2="34.864" y2="64.264"/>
	<line fill="none" stroke="#595757" stroke-miterlimit="10" x1="33.515" y1="66.683" x2="36.333" y2="67.673"/>
</g>
<g>
	<line fill="none" stroke="#595757" stroke-miterlimit="10" x1="58.315" y1="59.82" x2="42.047" y2="78.222"/>
	<line fill="none" stroke="#595757" stroke-miterlimit="10" x1="42.107" y1="78.415" x2="42.057" y2="75.429"/>
	<line fill="none" stroke="#595757" stroke-miterlimit="10" x1="41.766" y1="78.184" x2="44.747" y2="77.989"/>
</g>
<g>
	<line fill="none" stroke="#595757" stroke-miterlimit="10" x1="62.39" y1="60.943" x2="54.766" y2="84.291"/>
	<line fill="none" stroke="#595757" stroke-miterlimit="10" x1="54.896" y1="84.444" x2="53.665" y2="81.723"/>
	<line fill="none" stroke="#595757" stroke-miterlimit="10" x1="54.492" y1="84.368" x2="57.15" y2="83.005"/>
</g>
<g>
	<line fill="none" stroke="#595757" stroke-miterlimit="10" x1="74.07" y1="61.35" x2="83.668" y2="83.958"/>
	<line fill="none" stroke="#595757" stroke-miterlimit="10" x1="83.867" y1="83.987" x2="81.151" y2="82.746"/>
	<line fill="none" stroke="#595757" stroke-miterlimit="10" x1="83.511" y1="84.196" x2="84.619" y2="81.422"/>
</g>
<g>
	<line fill="none" stroke="#595757" stroke-miterlimit="10" x1="83.511" y1="50.46" x2="107.37" y2="53.118"/>
	<line fill="none" stroke="#595757" stroke-miterlimit="10" x1="107.488" y1="52.961" x2="105.152" y2="54.695"/>
	<line fill="none" stroke="#595757" stroke-miterlimit="10" x1="107.499" y1="53.367" x2="105.644" y2="51.078"/>
</g>
<path fill="#23A664" d="M67.515,40.508v12.448c0,0.242-0.087,0.45-0.26,0.623c-0.174,0.173-0.381,0.26-0.623,0.26h-0.392
	c-0.242,0-0.449-0.086-0.623-0.26s-0.26-0.381-0.26-0.623v-8.528h0.785v8.528c0,0.066,0.032,0.099,0.098,0.099h0.392
	c0.065,0,0.098-0.033,0.098-0.099V41.292h-1.373v-0.784H67.515z"/>
<path fill="#23A664" d="M69.23,40.508c0.261,0,0.49,0.082,0.687,0.245c0.195-0.163,0.424-0.245,0.686-0.245h1.078v13.331h-0.785
	V41.292h-0.294c-0.078,0-0.147,0.029-0.206,0.089c-0.059,0.059-0.088,0.127-0.088,0.205v12.253h-0.784V41.585
	c0-0.078-0.03-0.146-0.089-0.205c-0.059-0.06-0.127-0.089-0.205-0.089h-0.294v12.547h-0.784V40.508H69.23z"/>
</svg>
