<?xml version="1.0" encoding="UTF-8"?>
<svg width="1044px" height="200px" viewBox="0 0 1044 200" version="1.1" xmlns="http://www.w3.org/2000/svg" xmlns:xlink="http://www.w3.org/1999/xlink">
    <title>5DEGREES@2x</title>
    <defs>
        <polygon id="path-1" points="0 0 96.7247337 0 96.7247337 137.880952 0 137.880952"></polygon>
        <polygon id="path-3" points="-2.66404921e-15 0 138.070047 0 138.070047 47.6180952 -2.66404921e-15 47.6180952"></polygon>
        <polygon id="path-5" points="0 0 47.6103612 0 47.6103612 90.4752381 0 90.4752381"></polygon>
        <polygon id="path-7" points="0 -5.68434189e-14 161.873324 -5.68434189e-14 161.873324 47.6157143 0 47.6157143"></polygon>
        <polygon id="path-9" points="0 0 47.6103612 0 47.6103612 47.6180952 0 47.6180952"></polygon>
        <polygon id="path-11" points="0 0 47.6103612 0 47.6103612 47.617619 0 47.617619"></polygon>
    </defs>
    <g id="页面-1" stroke="none" stroke-width="1" fill="none" fill-rule="evenodd">
        <g id="DEGREES" transform="translate(-128.000000, -100.000000)">
            <g id="5DEGREES" transform="translate(128.000000, 100.000000)">
                <path d="M308.145208,64.5195238 C302.431965,58.2338095 294.814307,55.3766667 285.106554,55.3766667 L260.158725,55.3766667 L260.158725,154.029048 L285.106554,154.029048 C294.814307,154.029048 302.431965,151.167143 308.145208,144.88619 C315.18678,137.076667 315.381983,122.41 315.381983,103.748095 C315.381983,85.0861905 315.18678,72.3290476 308.145208,64.5195238 M322.233114,159.738571 C313.66801,168.31 301.289316,172.500476 287.20141,172.500476 L239.59581,172.500476 L239.59581,36.9004762 L287.20141,36.9004762 C301.289316,36.9004762 313.66801,41.0909524 322.233114,49.662381 C336.897105,64.3290476 335.944898,84.1338095 335.944898,103.748095 C335.944898,123.362381 336.897105,145.076667 322.233114,159.738571" id="Fill-1" fill="#000000"></path>
                <polygon id="Fill-3" fill="#000000" points="366.428384 172.499524 366.428384 36.8995238 453.064958 36.8995238 453.064958 55.3757143 386.991299 55.3757143 386.991299 94.99 443.352444 94.99 443.352444 113.270952 386.991299 113.270952 386.991299 154.028095 453.064958 154.028095 453.064958 172.499524"></polygon>
                <path d="M562.3793,158.218571 C552.095462,169.070952 539.340646,173.642381 525.057537,173.642381 C510.969632,173.642381 498.78614,168.499524 489.449748,159.16619 C476.123608,145.837619 476.313903,130.79 476.313903,104.704286 C476.313903,78.6090476 476.123608,63.5661905 489.449748,50.2328571 C498.78614,40.8995238 510.588749,35.7614286 525.057537,35.7614286 C553.809435,35.7614286 570.568282,54.6138095 574.377111,77.8471429 L553.618993,77.8471429 C550.191047,62.9947619 540.288092,54.2328571 525.057537,54.2328571 C517.058997,54.2328571 509.826983,57.4709524 505.065947,62.6138095 C498.400496,69.8471429 496.876965,77.4661905 496.876965,104.704286 C496.876965,131.932857 498.400496,139.742381 505.065947,146.980476 C509.826983,152.123333 517.058997,155.16619 525.057537,155.16619 C534.008285,155.16619 541.816385,151.742381 547.148745,145.647143 C552.095462,139.932857 553.999876,133.080476 553.999876,124.318571 L553.999876,116.699524 L525.057537,116.699524 L525.057537,99.1804762 L574.567552,99.1804762 L574.567552,119.937619 C574.567552,137.461429 571.330047,148.694762 562.3793,158.218571" id="Fill-5" fill="#000000"></path>
                <path d="M655.888906,55.3771429 L625.423035,55.3771429 L625.423035,97.8438095 L655.888906,97.8438095 C669.595928,97.8438095 678.927559,90.0342857 678.927559,76.7057143 C678.927559,63.3771429 669.595928,55.3771429 655.888906,55.3771429 L655.888906,55.3771429 Z M679.689325,172.500952 L651.127869,115.367619 L625.423035,115.367619 L625.423035,172.500952 L604.855359,172.500952 L604.855359,36.9009524 L657.407676,36.9009524 C683.117271,36.9009524 699.490474,53.472381 699.490474,76.5152381 C699.490474,95.9438095 687.687866,108.32 672.45255,112.510476 L703.680186,172.500952 L679.689325,172.500952 Z" id="Fill-7" fill="#000000"></path>
                <polygon id="Fill-9" fill="#000000" points="729.59641 172.499524 729.59641 36.8995238 816.232984 36.8995238 816.232984 55.3757143 750.159325 55.3757143 750.159325 94.99 806.520471 94.99 806.520471 113.270952 750.159325 113.270952 750.159325 154.028095 816.232984 154.028095 816.232984 172.499524"></polygon>
                <polygon id="Fill-11" fill="#000000" points="844.433553 172.499524 844.433553 36.8995238 931.070128 36.8995238 931.070128 55.3757143 864.996468 55.3757143 864.996468 94.99 921.357614 94.99 921.357614 113.270952 864.996468 113.270952 864.996468 154.028095 931.070128 154.028095 931.070128 172.499524"></polygon>
                <g id="编组" transform="translate(947.275266, 35.762857)">
                    <mask id="mask-2" fill="white">
                        <use xlink:href="#path-1"></use>
                    </mask>
                    <g id="Clip-14"></g>
                    <path d="M47.981722,137.880952 C27.6092484,137.880952 12.9452572,133.119048 0,119.97619 L13.707023,106.452381 C23.6099781,116.357143 34.4603794,119.404762 48.3626049,119.404762 C66.0688982,119.404762 76.3527362,111.790476 76.3527362,98.647619 C76.3527362,92.7428571 74.6387632,87.7904762 71.0203758,84.5571429 C67.5924298,81.3190476 64.1644838,79.9857143 56.1707041,78.8428571 L40.1736228,76.5571429 C29.128019,75.0333333 20.3724735,71.2238095 14.4687888,65.7 C7.80809923,59.4142857 4.56583364,50.847619 4.56583364,39.8 C4.56583364,16.1857143 21.7008026,0 49.8813754,0 C67.7828712,0 80.3520066,4.57142857 91.9641737,15.4238095 L78.828475,28.3761905 C70.4490514,20.3761905 60.7412988,17.9 49.3100511,17.9 C33.3177308,17.9 24.5621853,27.0428571 24.5621853,39.0380952 C24.5621853,43.9904762 26.0809559,48.3714286 29.6993433,51.6095238 C33.1272893,54.652381 38.6500912,56.9428571 44.9346589,57.8904762 L60.3604159,60.1809524 C72.9247902,62.0809524 79.9711237,65.1333333 85.679606,70.2714286 C93.1115834,76.747619 96.7252098,86.4571429 96.7252098,98.0809524 C96.7252098,123.02381 76.3527362,137.880952 47.981722,137.880952" id="Fill-13" fill="#000000" mask="url(#mask-2)"></path>
                </g>
                <g id="编组" transform="translate(23.805657, 0.000000)">
                    <mask id="mask-4" fill="white">
                        <use xlink:href="#path-3"></use>
                    </mask>
                    <g id="Clip-16"></g>
                    <path d="M23.8051806,23.8085714 L23.8051806,47.6180952 L114.264867,47.6180952 C127.357716,47.6180952 138.070047,36.9038095 138.070047,23.8085714 C138.070047,10.7133333 127.357716,-0.000952380952 114.264867,-0.000952380952 L-2.66404921e-15,-0.000952380952 C13.0928493,-0.000952380952 23.8051806,10.7133333 23.8051806,23.8085714" id="Fill-15" fill="#50A7F7" mask="url(#mask-4)"></path>
                </g>
                <g id="编组" transform="translate(0.000476, 0.000000)">
                    <mask id="mask-6" fill="white">
                        <use xlink:href="#path-5"></use>
                    </mask>
                    <g id="Clip-18"></g>
                    <path d="M23.8051806,-0.000952380952 C10.7123313,-0.000952380952 0,10.7133333 0,23.8085714 L0,90.4752381 C0,77.38 10.7123313,66.6657143 23.8051806,66.6657143 L47.6103612,66.6657143 L47.6103612,47.6180952 L47.6103612,23.8085714 C47.6103612,10.7133333 36.8980299,-0.000952380952 23.8051806,-0.000952380952" id="Fill-17" fill="#FA75A7" mask="url(#mask-6)"></path>
                </g>
                <g id="编组" transform="translate(0.000000, 152.384286)">
                    <mask id="mask-8" fill="white">
                        <use xlink:href="#path-7"></use>
                    </mask>
                    <g id="Clip-20"></g>
                    <path d="M159.887972,33.247619 C160.126023,32.7047619 160.268854,32.1190476 160.464057,31.552381 C160.768763,30.6857143 161.082992,29.8285714 161.287716,28.9190476 C161.425786,28.2857143 161.463874,27.6238095 161.554334,26.9761905 C161.654316,26.2380952 161.825713,25.5285714 161.854279,24.7761905 C161.863802,24.547619 161.844757,24.3285714 161.844757,24.1 C161.844757,24 161.873324,23.9047619 161.873324,23.8095238 C161.873324,23.6666667 161.835235,23.5428571 161.835235,23.4047619 C161.806669,22.0809524 161.687643,20.7857143 161.440069,19.5285714 C161.344849,19 161.192495,18.4857143 161.059186,17.9666667 C160.935399,17.5 160.787807,17.047619 160.630693,16.5952381 C157.545542,7.01904762 148.637643,-5.68434189e-14 138.068143,-5.68434189e-14 L136.701726,-5.68434189e-14 L114.453404,-5.68434189e-14 L114.262962,-5.68434189e-14 L23.8032762,-5.68434189e-14 C10.7104269,-5.68434189e-14 -0.00190441445,10.7142857 -0.00190441445,23.8095238 C-0.00190441445,36.9047619 10.7104269,47.6190476 23.8032762,47.6190476 L138.068143,47.6190476 C138.172886,47.6190476 138.263345,47.5857143 138.368088,47.5857143 C138.591857,47.5857143 138.810865,47.6047619 139.039394,47.5952381 C139.786877,47.5666667 140.501032,47.3952381 141.234232,47.2952381 C141.886494,47.2095238 142.548278,47.1666667 143.181496,47.0285714 C144.090854,46.8285714 144.943079,46.5047619 145.809588,46.2095238 C146.376151,46.0095238 146.96652,45.8666667 147.509278,45.6285714 C148.43768,45.2285714 149.289905,44.7 150.156414,44.1904762 C150.575385,43.9380952 151.037205,43.7428571 151.441893,43.4666667 C153.90811,41.7761905 156.036293,39.647619 157.7217,37.1809524 C158.002601,36.7714286 158.197804,36.3190476 158.450139,35.8952381 C158.964331,35.0285714 159.483283,34.1761905 159.887972,33.247619" id="Fill-19" fill="#8A8ADB" mask="url(#mask-8)"></path>
                </g>
                <path d="M47.6108373,66.6657143 L23.8056567,66.6657143 C10.7128074,66.6657143 0.000476103612,77.38 0.000476103612,90.4752381 C0.000476103612,103.570476 10.7128074,114.284762 23.8056567,114.284762 L114.265343,114.284762 L114.265343,90.4752381 C114.265343,77.38 124.977674,66.6657143 138.070524,66.6657143 L47.6108373,66.6657143 Z" id="Fill-21" fill="#FBB75E"></path>
                <path d="M138.070524,66.6657143 C124.977674,66.6657143 114.265343,77.38 114.265343,90.4752381 L114.265343,114.284762 L114.265343,152.38 L138.070524,152.38 C151.163373,152.38 161.875704,163.094286 161.875704,176.189524 L161.875704,90.4752381 C161.875704,77.38 151.163373,66.6657143 138.070524,66.6657143" id="Fill-23" fill="#73E7A1"></path>
                <g id="编组" transform="translate(0.000476, 0.000000)">
                    <mask id="mask-10" fill="white">
                        <use xlink:href="#path-9"></use>
                    </mask>
                    <g id="Clip-26"></g>
                    <path d="M47.6103612,23.8085714 C47.6103612,36.9609524 36.9504013,47.6180952 23.8051806,47.6180952 C10.6551988,47.6180952 0,36.9609524 0,23.8085714 C0,10.6609524 10.6551988,-0.000952380952 23.8051806,-0.000952380952 C36.9504013,-0.000952380952 47.6103612,10.6609524 47.6103612,23.8085714" id="Fill-25" fill="#FB91B9" mask="url(#mask-10)"></path>
                </g>
                <path d="M47.6108373,90.4752381 C47.6108373,103.627619 36.9508774,114.284762 23.8056567,114.284762 C10.6556749,114.284762 0.000476103612,103.627619 0.000476103612,90.4752381 C0.000476103612,77.327619 10.6556749,66.6657143 23.8056567,66.6657143 C36.9508774,66.6657143 47.6108373,77.327619 47.6108373,90.4752381" id="Fill-27" fill="#FCC57E"></path>
                <path d="M161.875704,90.4752381 C161.875704,103.627619 151.215744,114.284762 138.070524,114.284762 C124.920542,114.284762 114.265343,103.627619 114.265343,90.4752381 C114.265343,77.327619 124.920542,66.6657143 138.070524,66.6657143 C151.215744,66.6657143 161.875704,77.327619 161.875704,90.4752381" id="Fill-29" fill="#8FECB4"></path>
                <g id="编组" transform="translate(114.265343, 152.382381)">
                    <mask id="mask-12" fill="white">
                        <use xlink:href="#path-11"></use>
                    </mask>
                    <g id="Clip-32"></g>
                    <path d="M47.6103612,23.8095238 C47.6103612,36.9571429 36.9504013,47.6190476 23.8051806,47.6190476 C10.6551988,47.6190476 0,36.9571429 0,23.8095238 C0,10.6571429 10.6551988,0 23.8051806,0 C36.9504013,0 47.6103612,10.6571429 47.6103612,23.8095238" id="Fill-31" fill="#A1A1E2" mask="url(#mask-12)"></path>
                </g>
            </g>
        </g>
    </g>
</svg>